<svg width="14" height="14" viewBox="0 0 14 14" fill="none" xmlns="http://www.w3.org/2000/svg">
<g clip-path="url(#clip0_554_4712)">
<path d="M1.16699 12.25C1.16699 11.438 1.37884 10.6401 1.78161 9.93512C2.18438 9.2301 2.76413 8.64237 3.46357 8.22999C4.16302 7.81762 4.95795 7.59487 5.76983 7.58377C6.58172 7.57266 7.38245 7.77358 8.09291 8.16667M9.91699 9.91667L12.8337 12.8333M12.8337 9.91667L9.91699 12.8333M8.75033 4.66667C8.75033 6.2775 7.44449 7.58333 5.83366 7.58333C4.22283 7.58333 2.91699 6.2775 2.91699 4.66667C2.91699 3.05584 4.22283 1.75 5.83366 1.75C7.44449 1.75 8.75033 3.05584 8.75033 4.66667Z" stroke="#606060" stroke-width="1.8" stroke-linecap="round" stroke-linejoin="round"/>
</g>
<defs>
<clipPath id="clip0_554_4712">
<rect width="14" height="14" fill="white"/>
</clipPath>
</defs>
</svg>
