<svg width="24" height="24" viewBox="0 0 24 24" fill="none" xmlns="http://www.w3.org/2000/svg">
<path d="M9.52793 3.94408H4.89509C4.39248 3.94408 3.91046 4.14374 3.55506 4.49914C3.19966 4.85454 3 5.33656 3 5.83917V19.1048C3 19.6074 3.19966 20.0895 3.55506 20.4449C3.91046 20.8003 4.39248 20.9999 4.89509 20.9999H18.1608C18.6634 20.9999 19.1454 20.8003 19.5008 20.4449C19.8562 20.0895 20.0559 19.6074 20.0559 19.1048V14.472M17.5686 3.58873C17.9456 3.21177 18.4568 3 18.9899 3C19.523 3 20.0343 3.21177 20.4113 3.58873C20.7882 3.96569 21 4.47695 21 5.01005C21 5.54315 20.7882 6.05441 20.4113 6.43137L13.871 12.9726C13.646 13.1974 13.3681 13.3619 13.0628 13.4511L10.3405 14.247C10.2589 14.2708 10.1725 14.2722 10.0902 14.2511C10.008 14.2301 9.93286 14.1873 9.8728 14.1272C9.81274 14.0671 9.76994 13.992 9.74886 13.9098C9.72778 13.8275 9.7292 13.7411 9.75299 13.6595L10.5489 10.9372C10.6385 10.6322 10.8034 10.3545 11.0284 10.1299L17.5686 3.58873Z" stroke="#0D0D0D" stroke-width="1.8" stroke-linecap="round" stroke-linejoin="round"/>
</svg>
