<svg width="24" height="24" viewBox="0 0 24 24" fill="none" xmlns="http://www.w3.org/2000/svg">
<path d="M9 3H4C3.44772 3 3 3.44772 3 4V20C3 20.5523 3.44772 21 4 21H9C9.55228 21 10 20.5523 10 20V4C10 3.44772 9.55228 3 9 3Z" stroke="white" stroke-width="1.6" stroke-linecap="round" stroke-linejoin="round"/>
<path d="M20 3H15C14.4477 3 14 3.44772 14 4V20C14 20.5523 14.4477 21 15 21H20C20.5523 21 21 20.5523 21 20V4C21 3.44772 20.5523 3 20 3Z" stroke="white" stroke-width="1.6" stroke-linecap="round" stroke-linejoin="round"/>
</svg>
