<svg width="50" height="50" viewBox="0 0 50 50" fill="none" xmlns="http://www.w3.org/2000/svg">
<path d="M44.0952 21.2381C44.0952 20.0381 43.5238 18.9143 42.5714 18.1905L27.3333 6.7619C26.6739 6.26734 25.8719 6 25.0476 6C24.2234 6 23.4213 6.26734 22.7619 6.7619L7.52381 18.1905C7.05068 18.5453 6.66667 19.0055 6.40218 19.5344C6.1377 20.0634 6 20.6467 6 21.2381" stroke="#18181B" stroke-width="2" stroke-linecap="round" stroke-linejoin="round"/>
<path d="M37.1904 25.6434V11.7148H24.6904H12.1904V25.6434L25.0476 33.1434L37.1904 25.6434Z" fill="#2F80EC"/>
<path d="M37.1904 25.6434V11.7148H24.6904H12.1904V25.6434" stroke="#18181B" stroke-width="2"/>
<path d="M44.0952 21.7168L27.0095 32.5739C26.4215 32.9424 25.7416 33.1378 25.0476 33.1378C24.3537 33.1378 23.6738 32.9424 23.0857 32.5739L6 21.7168" stroke="#18181B" stroke-width="2" stroke-linecap="round" stroke-linejoin="round"/>
</svg>
