<svg width="16" height="17" viewBox="0 0 16 17" fill="none" xmlns="http://www.w3.org/2000/svg">
<path d="M10.3158 2.21739H12.3421C12.6492 2.21739 12.9437 2.34565 13.1609 2.57396C13.378 2.80226 13.5 3.11191 13.5 3.43478V13.7826C13.5 14.1055 13.378 14.4151 13.1609 14.6434C12.9437 14.8717 12.6492 15 12.3421 15H3.65789C3.3508 15 3.05629 14.8717 2.83914 14.6434C2.62199 14.4151 2.5 14.1055 2.5 13.7826V3.43478C2.5 3.11191 2.62199 2.80226 2.83914 2.57396C3.05629 2.34565 3.3508 2.21739 3.65789 2.21739H5.68421M8 7.3913H10.3158M8 10.4348H10.3158M5.68421 7.3913H5.69M5.68421 10.4348H5.69M6.26316 1H9.73684C10.0566 1 10.3158 1.27252 10.3158 1.6087V2.82609C10.3158 3.16226 10.0566 3.43478 9.73684 3.43478H6.26316C5.94341 3.43478 5.68421 3.16226 5.68421 2.82609V1.6087C5.68421 1.27252 5.94341 1 6.26316 1Z" stroke="#3A3A3A" stroke-width="1.2" stroke-linecap="round" stroke-linejoin="round"/>
</svg>
