<svg width="16" height="17" viewBox="0 0 16 17" fill="none" xmlns="http://www.w3.org/2000/svg">
<path d="M1.33301 14.5C1.33295 13.4735 1.6291 12.4689 2.1859 11.6066C2.74271 10.7443 3.53652 10.061 4.47207 9.63865C5.40762 9.21634 6.44517 9.07297 7.46018 9.22575C8.4752 9.37854 9.42456 9.82097 10.1943 10.5M10.6663 13.1667L11.9997 14.5L14.6663 11.8333M9.99967 5.83333C9.99967 7.67428 8.50729 9.16667 6.66634 9.16667C4.82539 9.16667 3.33301 7.67428 3.33301 5.83333C3.33301 3.99238 4.82539 2.5 6.66634 2.5C8.50729 2.5 9.99967 3.99238 9.99967 5.83333Z" stroke="#3A3A3A" stroke-width="1.2" stroke-linecap="round" stroke-linejoin="round"/>
</svg>
