<svg width="16" height="16" viewBox="0 0 16 16" fill="none" xmlns="http://www.w3.org/2000/svg">
<path d="M9.875 1.125V3.875C9.875 4.23967 10.0199 4.58941 10.2777 4.84727C10.5356 5.10514 10.8853 5.25 11.25 5.25H14M7.125 5.9375H5.75M11.25 8.6875H5.75M11.25 11.4375H5.75M10.5625 1.125H4.375C4.01033 1.125 3.66059 1.26987 3.40273 1.52773C3.14487 1.78559 3 2.13533 3 2.5V13.5C3 13.8647 3.14487 14.2144 3.40273 14.4723C3.66059 14.7301 4.01033 14.875 4.375 14.875H12.625C12.9897 14.875 13.3394 14.7301 13.5973 14.4723C13.8551 14.2144 14 13.8647 14 13.5V4.5625L10.5625 1.125Z" stroke="#3A3A3A" stroke-width="1.2" stroke-linecap="round" stroke-linejoin="round"/>
</svg>
