<svg width="20" height="20" viewBox="0 0 20 20" fill="none" xmlns="http://www.w3.org/2000/svg">
<path d="M6.66683 3.33341H5.00016C4.55814 3.33341 4.13421 3.50901 3.82165 3.82157C3.50909 4.13413 3.3335 4.55805 3.3335 5.00008V16.6667C3.3335 17.1088 3.50909 17.5327 3.82165 17.8453C4.13421 18.1578 4.55814 18.3334 5.00016 18.3334H15.0002C15.4422 18.3334 15.8661 18.1578 16.1787 17.8453C16.4912 17.5327 16.6668 17.1088 16.6668 16.6667V16.2501M13.3335 3.33341H15.0002C15.2924 3.33371 15.5795 3.41087 15.8325 3.55713C16.0856 3.7034 16.2957 3.91363 16.4418 4.16675M7.50016 1.66675H12.5002C12.9604 1.66675 13.3335 2.03984 13.3335 2.50008V4.16675C13.3335 4.62699 12.9604 5.00008 12.5002 5.00008H7.50016C7.03993 5.00008 6.66683 4.62699 6.66683 4.16675V2.50008C6.66683 2.03984 7.03993 1.66675 7.50016 1.66675ZM17.8151 10.5217C18.1471 10.1897 18.3336 9.73947 18.3336 9.27C18.3336 8.80054 18.1471 8.3503 17.8151 8.01834C17.4832 7.68637 17.0329 7.49988 16.5635 7.49988C16.094 7.49988 15.6438 7.68637 15.3118 8.01834L11.9701 11.3617C11.772 11.5597 11.627 11.8044 11.5485 12.0733L10.851 14.465C10.8301 14.5367 10.8288 14.6127 10.8473 14.6851C10.8659 14.7574 10.9035 14.8235 10.9563 14.8763C11.0092 14.9291 11.0752 14.9668 11.1476 14.9853C11.2199 15.0038 11.2959 15.0026 11.3676 14.9817L13.7593 14.2842C14.0282 14.2057 14.273 14.0606 14.471 13.8625L17.8151 10.5217Z" stroke="#D3D8E2" stroke-width="1.2" stroke-linecap="round" stroke-linejoin="round"/>
</svg>
