<svg width="20" height="20" viewBox="0 0 20 20" fill="none" xmlns="http://www.w3.org/2000/svg">
<path d="M12.125 1.875V5.125C12.125 5.55598 12.2962 5.9693 12.601 6.27405C12.9057 6.5788 13.319 6.75 13.75 6.75H17M8.875 7.5625H7.25M13.75 10.8125H7.25M13.75 14.0625H7.25M12.9375 1.875H5.625C5.19402 1.875 4.7807 2.0462 4.47595 2.35095C4.1712 2.6557 4 3.06902 4 3.5V16.5C4 16.931 4.1712 17.3443 4.47595 17.6491C4.7807 17.9538 5.19402 18.125 5.625 18.125H15.375C15.806 18.125 16.2193 17.9538 16.524 17.6491C16.8288 17.3443 17 16.931 17 16.5V5.9375L12.9375 1.875Z" stroke="#D3D8E2" stroke-width="1.2" stroke-linecap="round" stroke-linejoin="round"/>
</svg>
