<svg width="20" height="20" viewBox="0 0 20 20" fill="none" xmlns="http://www.w3.org/2000/svg">
<path d="M6.66683 3.33341H5.00016C4.55814 3.33341 4.13421 3.50901 3.82165 3.82157C3.50909 4.13413 3.3335 4.55805 3.3335 5.00008V16.6667C3.3335 17.1088 3.50909 17.5327 3.82165 17.8453C4.13421 18.1578 4.55814 18.3334 5.00016 18.3334H15.0002C15.4422 18.3334 15.8661 18.1578 16.1787 17.8453C16.4912 17.5327 16.6668 17.1088 16.6668 16.6667M13.3335 3.33341H15.0002C15.4422 3.33341 15.8661 3.50901 16.1787 3.82157C16.4912 4.13413 16.6668 4.55805 16.6668 5.00008V6.66675M10.1668 11.6667H16.6668M16.6668 11.6667L15.1668 10.1667M16.6668 11.6667L15.1668 13.1667M12.5002 1.66675H7.50016C7.27915 1.66675 7.06719 1.75455 6.91091 1.91083C6.75463 2.06711 6.66683 2.27907 6.66683 2.50008V4.16675C6.66683 4.66675 7.00016 5.00008 7.50016 5.00008H12.5002C13.0002 5.00008 13.3335 4.66675 13.3335 4.16675V2.50008C13.3335 2.00008 13.0002 1.66675 12.5002 1.66675Z" stroke="#D3D8E2" stroke-width="1.2" stroke-linecap="round" stroke-linejoin="round"/>
</svg>
