<svg width="20" height="20" viewBox="0 0 20 20" fill="none" xmlns="http://www.w3.org/2000/svg">
<g clip-path="url(#clip0_345_3627)">
<path d="M16.7504 12.7592L16.1671 12.5648M12.5374 11.1388L11.9541 10.9444M13.4449 14.2499L13.6393 13.6666M15.0652 10.0369L15.2597 9.45361M15.3892 14.2498L15.13 13.6017M13.5744 10.1018L13.3151 9.45361M11.9541 12.8887L12.6022 12.6295M16.1022 11.0739L16.7503 10.8146M16.2967 11.8517C16.2967 12.9256 15.4261 13.7962 14.3522 13.7962C13.2783 13.7962 12.4078 12.9256 12.4078 11.8517C12.4078 10.7778 13.2783 9.90729 14.3522 9.90729C15.4261 9.90729 16.2967 10.7778 16.2967 11.8517Z" stroke="#D3D8E2" stroke-width="1.2" stroke-linecap="round" stroke-linejoin="round"/>
</g>
<path d="M6.66683 3.33341H5.00016C4.55814 3.33341 4.13421 3.50901 3.82165 3.82157C3.50909 4.13413 3.3335 4.55805 3.3335 5.00008V16.6667C3.3335 17.1088 3.50909 17.5327 3.82165 17.8453C4.13421 18.1578 4.55814 18.3334 5.00016 18.3334H15.0002C15.4422 18.3334 15.8661 18.1578 16.1787 17.8453C16.4912 17.5327 16.6668 17.1088 16.6668 16.6667M13.3335 3.33341H15.0002C15.4422 3.33341 15.8661 3.50901 16.1787 3.82157C16.4912 4.13413 16.6668 4.55805 16.6668 5.00008V6.66675M12.5002 1.66675H7.50016C7.27915 1.66675 7.06719 1.75455 6.91091 1.91083C6.75463 2.06711 6.66683 2.27907 6.66683 2.50008V4.16675C6.66683 4.66675 7.00016 5.00008 7.50016 5.00008H12.5002C13.0002 5.00008 13.3335 4.66675 13.3335 4.16675V2.50008C13.3335 2.00008 13.0002 1.66675 12.5002 1.66675Z" stroke="#D3D8E2" stroke-width="1.2" stroke-linecap="round" stroke-linejoin="round"/>
<defs>
<clipPath id="clip0_345_3627">
<rect width="7.5" height="7.5" fill="white" transform="translate(10.8335 8.33325)"/>
</clipPath>
</defs>
</svg>
