<svg width="20" height="20" viewBox="0 0 20 20" fill="none" xmlns="http://www.w3.org/2000/svg">
<path d="M13.0077 1.6665V4.99984C13.0077 5.44186 13.1583 5.86579 13.4264 6.17835C13.6945 6.49091 14.0582 6.6665 14.4373 6.6665H17.2966M13.7225 1.6665H5.28903C4.90986 1.6665 4.54622 1.8421 4.27811 2.15466C4.01 2.46722 3.85938 2.89114 3.85938 3.33317V16.6665C3.85938 17.1085 4.01 17.5325 4.27811 17.845C4.54622 18.1576 4.90986 18.3332 5.28903 18.3332H15.867C16.2461 18.3332 16.6098 18.1576 16.8779 17.845C17.146 17.5325 17.2966 17.1085 17.2966 16.6665V5.83317L13.7225 1.6665Z" stroke="white" stroke-width="1.2" stroke-linecap="round" stroke-linejoin="round"/>
<path d="M7.71875 9.99984H13.4374M9.14841 9.1665V10.8332M7.71875 14.1665H13.4374M12.0077 13.3332V14.9998" stroke="white" stroke-width="1.2" stroke-linecap="round" stroke-linejoin="round"/>
</svg>
