<svg width="36" height="36" viewBox="0 0 36 36" fill="none" xmlns="http://www.w3.org/2000/svg">
<path d="M15 30.0001H6C5.20435 30.0001 4.44129 29.6841 3.87868 29.1215C3.31607 28.5589 3 27.7958 3 27.0001V7.50014C3 6.70449 3.31607 5.94143 3.87868 5.37882C4.44129 4.81621 5.20435 4.50014 6 4.50014H11.85C12.3517 4.49523 12.8467 4.61623 13.2895 4.85207C13.7324 5.08792 14.1091 5.43108 14.385 5.85014L15.6 7.65014C15.8732 8.06494 16.245 8.40543 16.6823 8.64105C17.1195 8.87667 17.6083 9.00006 18.105 9.00014H30C30.7956 9.00014 31.5587 9.31621 32.1213 9.87882C32.6839 10.4414 33 11.2045 33 12.0001V15.7501" stroke="white" stroke-width="2" stroke-linecap="round" stroke-linejoin="round"/>
<path d="M31 22L23 30M23 22L31 30" stroke="white" stroke-width="2" stroke-linecap="round" stroke-linejoin="round"/>
</svg>
