<svg width="16" height="16" viewBox="0 0 16 16" fill="none" xmlns="http://www.w3.org/2000/svg">
<path d="M11.9997 14C11.9997 12.5855 11.4378 11.229 10.4376 10.2288C9.43738 9.22857 8.08083 8.66667 6.66634 8.66667M6.66634 8.66667C5.25185 8.66667 3.8953 9.22857 2.89511 10.2288C1.89491 11.229 1.33301 12.5855 1.33301 14M6.66634 8.66667C8.50729 8.66667 9.99967 7.17428 9.99967 5.33333C9.99967 3.49238 8.50729 2 6.66634 2C4.82539 2 3.33301 3.49238 3.33301 5.33333C3.33301 7.17428 4.82539 8.66667 6.66634 8.66667ZM14.6664 13.3333C14.6664 11.0866 13.333 8.99997 11.9997 7.99997C12.438 7.67115 12.7885 7.23936 13.0201 6.74281C13.2517 6.24627 13.3574 5.70028 13.3277 5.15317C13.2981 4.60606 13.134 4.07469 12.85 3.6061C12.5661 3.13751 12.171 2.74614 11.6997 2.46663" stroke="white" stroke-width="1.6" stroke-linecap="round" stroke-linejoin="round"/>
</svg>
