<svg width="16" height="17" viewBox="0 0 16 17" fill="none" xmlns="http://www.w3.org/2000/svg">
<path d="M1.3335 14.5C1.33344 13.4735 1.62959 12.4689 2.18639 11.6066C2.7432 10.7443 3.53701 10.061 4.47256 9.63865C5.40811 9.21634 6.44565 9.07297 7.46067 9.22575C8.47568 9.37854 9.42505 9.82097 10.1948 10.5M10.6668 13.1667L12.0002 14.5L14.6668 11.8333M10.0002 5.83333C10.0002 7.67428 8.50778 9.16667 6.66683 9.16667C4.82588 9.16667 3.3335 7.67428 3.3335 5.83333C3.3335 3.99238 4.82588 2.5 6.66683 2.5C8.50778 2.5 10.0002 3.99238 10.0002 5.83333Z" stroke="#3A3A3A" stroke-width="1.2" stroke-linecap="round" stroke-linejoin="round"/>
</svg>
