<svg width="12" height="12" viewBox="0 0 12 12" fill="none" xmlns="http://www.w3.org/2000/svg">
<path d="M3.5 10.5H8.5M2 1.5H10C10.5523 1.5 11 1.94772 11 2.5V7.5C11 8.05228 10.5523 8.5 10 8.5H2C1.44772 8.5 1 8.05228 1 7.5V2.5C1 1.94772 1.44772 1.5 2 1.5Z" stroke="#2F80EC" stroke-linecap="round" stroke-linejoin="round"/>
<g clip-path="url(#clip0_786_11046)">
<path d="M5.16667 4.83203V4.16536C5.16667 3.94435 5.25446 3.73239 5.41074 3.57611C5.56702 3.41983 5.77899 3.33203 6 3.33203C6.22101 3.33203 6.43298 3.41983 6.58926 3.57611C6.74554 3.73239 6.83333 3.94435 6.83333 4.16536V4.83203M4.83333 4.83203H7.16667C7.35076 4.83203 7.5 4.98127 7.5 5.16536V6.33203C7.5 6.51613 7.35076 6.66536 7.16667 6.66536H4.83333C4.64924 6.66536 4.5 6.51613 4.5 6.33203V5.16536C4.5 4.98127 4.64924 4.83203 4.83333 4.83203Z" stroke="#2F80EC" stroke-linecap="round" stroke-linejoin="round"/>
</g>
<defs>
<clipPath id="clip0_786_11046">
<rect width="4" height="4" fill="white" transform="translate(4 3)"/>
</clipPath>
</defs>
</svg>
