<svg width="17" height="16" viewBox="0 0 17 16" fill="none" xmlns="http://www.w3.org/2000/svg">
<path d="M8.49984 13.3332H14.4998M11.4172 2.41449C11.6825 2.1491 12.0425 2 12.4178 2C12.7931 2 13.1531 2.1491 13.4185 2.41449C13.6839 2.67988 13.833 3.03983 13.833 3.41516C13.833 3.79048 13.6839 4.15043 13.4185 4.41582L5.41182 12.4232C5.25322 12.5818 5.05717 12.6978 4.84182 12.7605L2.92716 13.3192C2.86979 13.3359 2.80898 13.3369 2.75109 13.3221C2.69321 13.3072 2.64037 13.2771 2.59812 13.2349C2.55587 13.1926 2.52575 13.1398 2.51092 13.0819C2.49609 13.024 2.49709 12.9632 2.51382 12.9058L3.07249 10.9912C3.1353 10.776 3.25132 10.5802 3.40982 10.4218L11.4172 2.41449Z" stroke="white" stroke-width="1.2" stroke-linecap="round" stroke-linejoin="round"/>
</svg>
