<svg width="17" height="16" viewBox="0 0 17 16" fill="none" xmlns="http://www.w3.org/2000/svg">
<path d="M10.5002 7.99967V11.9997M8.50016 9.99967H12.5002M3.16683 10.6663C2.4335 10.6663 1.8335 10.0663 1.8335 9.33301V2.66634C1.8335 1.93301 2.4335 1.33301 3.16683 1.33301H9.8335C10.5668 1.33301 11.1668 1.93301 11.1668 2.66634M7.16683 5.33301H13.8335C14.5699 5.33301 15.1668 5.92996 15.1668 6.66634V13.333C15.1668 14.0694 14.5699 14.6663 13.8335 14.6663H7.16683C6.43045 14.6663 5.8335 14.0694 5.8335 13.333V6.66634C5.8335 5.92996 6.43045 5.33301 7.16683 5.33301Z" stroke="white" stroke-width="1.2" stroke-linecap="round" stroke-linejoin="round"/>
</svg>
