<svg width="20" height="20" viewBox="0 0 20 20" fill="none" xmlns="http://www.w3.org/2000/svg">
<path d="M10 12.5C8.61929 12.5 7.5 13.6193 7.5 15C7.5 16.3807 8.61929 17.5 10 17.5C11.3807 17.5 12.5 16.3807 12.5 15C12.5 13.6193 11.3807 12.5 10 12.5ZM10 12.5V10M5 7.5C6.38071 7.5 7.5 6.38071 7.5 5C7.5 3.61929 6.38071 2.5 5 2.5C3.61929 2.5 2.5 3.61929 2.5 5C2.5 6.38071 3.61929 7.5 5 7.5ZM5 7.5V9.16667C5 9.66667 5.33333 10 5.83333 10H14.1667C14.6667 10 15 9.66667 15 9.16667V7.5M15 7.5C16.3807 7.5 17.5 6.38071 17.5 5C17.5 3.61929 16.3807 2.5 15 2.5C13.6193 2.5 12.5 3.61929 12.5 5C12.5 6.38071 13.6193 7.5 15 7.5Z" stroke="#18181B" stroke-width="1.8" stroke-linecap="round" stroke-linejoin="round"/>
</svg>
