<svg width="16" height="16" viewBox="0 0 16 16" fill="none" xmlns="http://www.w3.org/2000/svg">
<path d="M5.99984 14.6654V11.9987H9.99984V14.6654M5.33317 3.9987H5.33984M10.6665 3.9987H10.6732M7.99984 3.9987H8.0065M7.99984 6.66536H8.0065M7.99984 9.33203H8.0065M10.6665 6.66536H10.6732M10.6665 9.33203H10.6732M5.33317 6.66536H5.33984M5.33317 9.33203H5.33984M3.99984 1.33203H11.9998C12.7362 1.33203 13.3332 1.92898 13.3332 2.66536V13.332C13.3332 14.0684 12.7362 14.6654 11.9998 14.6654H3.99984C3.26346 14.6654 2.6665 14.0684 2.6665 13.332V2.66536C2.6665 1.92898 3.26346 1.33203 3.99984 1.33203Z" stroke="white" stroke-width="1.2" stroke-linecap="round" stroke-linejoin="round"/>
</svg>
