<svg width="10" height="14" viewBox="0 0 10 14" fill="none" xmlns="http://www.w3.org/2000/svg">
<g clip-path="url(#clip0_554_2790)">
<path d="M4.99984 6.91667C6.15043 6.91667 7.08317 5.98393 7.08317 4.83333C7.08317 3.68274 6.15043 2.75 4.99984 2.75C3.84924 2.75 2.9165 3.68274 2.9165 4.83333C2.9165 5.98393 3.84924 6.91667 4.99984 6.91667ZM4.99984 6.91667C5.88389 6.91667 6.73174 7.26786 7.35686 7.89298C7.98198 8.5181 8.33317 9.36594 8.33317 10.25M4.99984 6.91667C4.11578 6.91667 3.26794 7.26786 2.64281 7.89298C2.01769 8.5181 1.6665 9.36594 1.6665 10.25" stroke="#2F80EC" stroke-width="1.6" stroke-linecap="round" stroke-linejoin="round"/>
</g>
<defs>
<clipPath id="clip0_554_2790">
<rect width="10" height="10" fill="white" transform="translate(0 1.5)"/>
</clipPath>
</defs>
</svg>
